# Blender 4.0.2
# www.blender.org
mtllib HexapodBody.mtl
o Cube
v -1.100000 0.080000 0.467696
v 1.100000 0.080000 0.467696
v 0.450000 -0.080000 0.717696
v -1.100000 -0.080000 0.467696
v 1.100000 -0.080000 0.467696
v -0.450000 0.080000 0.467696
v -0.450000 -0.080000 0.717696
v -0.450000 0.080000 0.717696
v 0.450000 -0.080000 0.467696
v 0.450000 0.080000 0.717696
v -1.100000 0.080000 -0.467696
v 1.100000 -0.080000 -0.467696
v 1.100000 0.080000 -0.467696
v -1.100000 -0.080000 0.000000
v -0.450000 0.080000 -0.717696
v 0.450000 -0.080000 -0.717696
v 0.450000 0.080000 -0.717696
v 1.100000 -0.080000 0.000000
v -1.100000 -0.080000 -0.467696
v -1.100000 0.080000 0.000000
v -0.450000 0.080000 -0.467696
v -0.450000 -0.080000 -0.717696
v 0.450000 -0.080000 -0.467696
v 1.100000 0.080000 0.000000
v 0.450000 0.080000 0.467696
v -0.450000 -0.080000 0.467696
v -0.450000 -0.080000 -0.467696
v 0.450000 0.080000 -0.467696
vn 1.0000 -0.0000 -0.0000
vn -0.0000 -0.0000 1.0000
vn -0.0000 -1.0000 -0.0000
vn -0.0000 1.0000 -0.0000
vn -1.0000 -0.0000 -0.0000
vn -0.0000 -0.0000 -1.0000
vt 0.625000 0.625000
vt 0.375000 0.750000
vt 0.375000 0.625000
vt 0.375000 0.000000
vt 0.625000 0.000000
vt 0.338068 0.750000
vt 0.161932 0.750000
vt 0.875000 0.625000
vt 0.838068 0.750000
vt 0.661932 0.750000
vt 0.625000 0.750000
vt 0.375000 1.000000
vt 0.375000 0.125000
vt 0.875000 0.750000
vt 0.125000 0.750000
vt 0.125000 0.625000
vt 0.625000 1.000000
vt 0.625000 0.125000
s 0
f 24/1/1 5/2/1 18/3/1
f 26/4/2 1/5/2 4/4/2
f 18/3/3 9/6/3 26/7/3
f 20/8/4 6/9/4 25/10/4
f 10/11/2 7/12/2 3/2/2
f 25/10/2 5/2/2 2/11/2
f 10/11/1 9/6/1 25/10/1
f 1/5/5 14/13/5 4/4/5
f 7/4/5 6/5/5 26/4/5
f 12/2/1 24/1/1 18/3/1
f 11/5/6 27/4/6 19/4/6
f 27/7/3 23/6/3 18/3/3
f 28/10/4 21/9/4 20/8/4
f 22/12/6 17/11/6 16/2/6
f 12/2/6 28/10/6 13/11/6
f 21/5/5 22/4/5 27/4/5
f 23/6/1 17/11/1 28/10/1
f 14/13/5 11/5/5 19/4/5
f 8/14/4 25/10/4 6/9/4
f 3/2/3 26/7/3 9/6/3
f 27/7/3 16/2/3 23/6/3
f 28/10/4 15/14/4 21/9/4
f 24/1/1 2/11/1 5/2/1
f 26/4/2 6/5/2 1/5/2
f 4/15/3 14/16/3 18/3/3
f 18/3/3 5/2/3 9/6/3
f 26/7/3 4/15/3 18/3/3
f 2/11/4 24/1/4 20/8/4
f 20/8/4 1/14/4 6/9/4
f 25/10/4 2/11/4 20/8/4
f 10/11/2 8/17/2 7/12/2
f 25/10/2 9/6/2 5/2/2
f 10/11/1 3/2/1 9/6/1
f 1/5/5 20/18/5 14/13/5
f 7/4/5 8/5/5 6/5/5
f 12/2/1 13/11/1 24/1/1
f 11/5/6 21/5/6 27/4/6
f 18/3/3 14/16/3 19/15/3
f 18/3/3 19/15/3 27/7/3
f 23/6/3 12/2/3 18/3/3
f 20/8/4 24/1/4 13/11/4
f 20/8/4 13/11/4 28/10/4
f 21/9/4 11/14/4 20/8/4
f 22/12/6 15/17/6 17/11/6
f 12/2/6 23/6/6 28/10/6
f 21/5/5 15/5/5 22/4/5
f 23/6/1 16/2/1 17/11/1
f 14/13/5 20/18/5 11/5/5
f 8/14/4 10/11/4 25/10/4
f 3/2/3 7/15/3 26/7/3
f 27/7/3 22/15/3 16/2/3
f 28/10/4 17/11/4 15/14/4
